<?xml version="1.0" encoding="UTF-8"?><svg id="_レイヤー_2" xmlns="http://www.w3.org/2000/svg" viewBox="0 0 1469.49 244.11"><defs><style>.cls-1{fill:#2f318d;}</style></defs><g id="logo"><path class="cls-1" d="M0,4.05h169.43v47.2H48.95v50.24h106.17v47.2H48.95v91.37H0V4.05Z"/><path class="cls-1" d="M208.52,4.05h167.84v46.19h-119.2v47.88h104.9v46.19h-104.9v49.56h120.79v46.19h-169.43V4.05Z"/><path class="cls-1" d="M421.49,4.05h48.95v188.82h110.94v47.2h-159.89V4.05Z"/><path class="cls-1" d="M620.47,4.05h48.95v236.02h-48.95V4.05Z"/><path class="cls-1" d="M715.19,122.73v-.67c0-67.1,47.68-122.06,116.02-122.06,41.96,0,67.07,14.84,87.73,36.41l-31.15,38.1c-17.17-16.52-34.65-26.64-56.9-26.64-37.51,0-64.53,33.04-64.53,73.5v.67c0,40.46,26.38,74.18,64.53,74.18,25.43,0,41.01-10.79,58.49-27.65l31.15,33.38c-22.89,25.96-48.32,42.15-91.23,42.15-65.48,0-114.12-53.61-114.12-121.38Z"/><path class="cls-1" d="M961.86,4.05h48.95v236.02h-48.95V4.05Z"/><path class="cls-1" d="M1118.25,51.92h-67.71V4.05h184.37v47.88h-67.71v188.14h-48.95V51.92Z"/><path class="cls-1" d="M1335.03,147.01L1249.52,4.05h57.22l53.08,94.75,54.04-94.75h55.63l-85.51,141.95v94.07h-48.95v-93.06Z"/></g></svg>